<svg xmlns="http://www.w3.org/2000/svg" viewBox="0 0 797.28 769.43"><defs><style>.cls-1{fill:#fff;}</style></defs><title>Ativo 2</title><g id="Camada_2" data-name="Camada 2"><g id="Camada_1-2" data-name="Camada 1"><path class="cls-1" d="M412,766.42l-.06,0h0Z"/><path class="cls-1" d="M328.59,188.48l0,0,.16.11Z"/><path class="cls-1" d="M463.76,140.12a1.42,1.42,0,0,1-.08-.18.59.59,0,0,0,0,.19Z"/><path class="cls-1" d="M412.53,767c0-.27-.07-.53-.11-.79a1.4,1.4,0,0,1-.39.26l0,0C412.17,766.61,412.35,766.77,412.53,767Z"/><path class="cls-1" d="M351.8,163.92a5.92,5.92,0,0,0,.65-.1A1.21,1.21,0,0,0,351.8,163.92Z"/><path class="cls-1" d="M365.33,1.75C356.61,6,357.17,14.46,356.47,22c-1.64,17.71,3.59,34.25,9.8,50.52,5.53,14.47,12.35,28.38,18.35,42.65l.51,1.25c1.8.7,2.33,1.91,1.33,3.74l.21.67c.63,2.76-.91,4.68-2.43,6.71-7.94,10.64-16.56,20.7-25.47,30.52-.4.5-.83,1-1.27,1.46-.59,1.56-1.86,2.94-1.8,5,.05,1.42-1.26,0-2.57-.5-.18.18-.37.37-.54.56-3.09,3-6.09,6-9.08,9.08l-1,1c-1.12,4.19-3.29,6.38-7.06,7.11-.19.21-.39.4-.58.6a22.13,22.13,0,0,1-2.29,2.45c-.49.39-1,.81-1.42,1.22a21.55,21.55,0,0,1-1.25,2.44c-.56.91-.88.6-1.19.17l-.16-.11c-.4.42-.81.83-1.22,1.24l-.26.25c.2,2.26-.54,3.62-3.16,3.2-.23.24-.46.48-.7.71l-.58.55c-.52,1.88-1.24,3.55-3.54,3.58-.12.13-.25.26-.37.4a19.39,19.39,0,0,1-2.18,2.35c-.34.26-.66.53-1,.81a3.07,3.07,0,0,1-2.38,2.28l-.86.91c-5.94,5.93-11.89,11.85-17.78,17.84l-.76.75c-.22,4.42-2.16,6.37-6.46,6.52l-1.21,1.31c-37.63,43.7-63.61,93.36-76.35,149.7a228.81,228.81,0,0,0-5.3,63.48A340.37,340.37,0,0,0,233.7,565.49c16.89,37.75,39.55,71.54,67.23,102.15,4.09,4.52,9.05,8.4,11.92,14a9.49,9.49,0,0,0,.52,1.79A4.52,4.52,0,0,1,314.6,685a3,3,0,0,0,.56.31,3.92,3.92,0,0,1,1.22,1.52c0,.12,0,.23-.05.34a12,12,0,0,1,4,3.87c.36,0,.71.09,1,.15,2.34.74,3.83,2.59,5.41,4.26,13,13.7,26.58,26.78,40.55,39.46,6.14,5.56,12.67,10.67,19.05,15.94.54.43,1.1.84,1.64,1.26a11.3,11.3,0,0,1,6,4.46c.53.39,1.05.78,1.59,1.16a10.41,10.41,0,0,1,1.12.75l.63.47c2,0,3.51.7,4.12,2.72l.27.16a12.6,12.6,0,0,1,1.15.75l.34.31c3-.22,5.69.83,8.76,3.59l.06,0a2.81,2.81,0,0,0,.35-.56,26.4,26.4,0,0,1,1.76-13.52c.13-1.21.26-2.43.38-3.65,5.49-39.93,19.27-77,38.4-112.31,16.29-30.06,35.51-58.27,53.71-87.13,13.88-22,27-44.4,37.16-68.38a243.25,243.25,0,0,0,18.85-74.2c3-33.91-2.14-66.76-11.94-99-14.24-46.9-37.14-89.7-63-131.06-4.77-7.62-10.19-14.8-14.83-22.49a17.11,17.11,0,0,0-1.22-3.16,44.53,44.53,0,0,1-3-4.07,14.59,14.59,0,0,0-1.17-1,3.54,3.54,0,0,1-1.18-1.62c0-.19,0-.38,0-.56a9.13,9.13,0,0,1-2.6-3.56,41.27,41.27,0,0,1-5.69-6.76,16.42,16.42,0,0,1-2-.86c-7.2-7.39-13.34-15.67-19.7-23.76-2.15-2.74-1.52-5.62-.44-8.51,3.62-9.63,7.58-19.15,10.71-29,.94-1.45,1.89-2.9,1.41-4.78a5.2,5.2,0,0,1,.3-2.65,4.21,4.21,0,0,0,.69-.73l0-3.66a10.15,10.15,0,0,1-1.16-2.61C442,34,424.52,21.4,405.86,10a61.36,61.36,0,0,0-19.41-7.52c-1.4-.3-3.58,0-3.55-2.51h-2a9,9,0,0,1-9,0h-6A1.42,1.42,0,0,1,365.33,1.75ZM330.49,663.69c-45.16-49.87-73.15-107.84-83.18-174C235.93,414.59,250.93,345,294,282c1.39-2,2.59-4.22,3.87-6.33h0c-1.1-2.12.3-2.49,1.9-2.73l14.14-19.31c.24-2.68,1.28-4.79,4-5.68,14.82-17.49,29-35.57,44.48-52.47.85-.93,1.33-2.92,2.76-2.28,1.84.82.11,2.32-.25,3.36-8.52,24.43-22.69,46-34.71,68.7Q276.51,366.54,281,480.94a309.35,309.35,0,0,0,15.63,85c1.79.86,2.09,2.21,1.25,3.92,6.13,22.24,15.35,43.37,23.37,64.94,3.09,8.32,6,16.7,9.22,25A4.87,4.87,0,0,1,330.49,663.69ZM523.24,385.85c.6-4.58,3.37-8.58,6-14,.17,2.49.31,3.78.35,5.07,1.38,48.8-13.45,93.3-36,135.74C486,527,478.18,541,469.22,554.47c-2.26,3.39-4.92,6.51-7.4,9.76-1.42,2.08-2.54.92-3.28-.5-1.29-2.46,1.95-7.34,5.13-7.91.07-.31.14-.63.22-.94h0c-1.08-2.35.05-3.83,1.95-5,18.65-39.86,37.15-79.76,47.08-123C516.08,413.15,521.41,400,523.24,385.85ZM460.31,394a334.48,334.48,0,0,0,10-115.29c-2.12-25.2-4.36-50.4-6.56-75.61h0c-.27-1.07-.6-2.13-.78-3.21-.09-.56-.11-1.48.81-1.27.44.1.71.92,1.06,1.41,13.06,20.27,20.28,42.84,26.05,66,14.39,57.61,8.29,113.83-11.48,169.14-9.39,26.31-20.24,52-31.52,77.55-15.95,36.07-25.6,74-35,112.08-3,12.08-6.14,24.14-10.16,35.94h0c-.08.94-.53,2.3-1.3,2-1-.41-.51-1.85-.29-2.88-5-57,5.6-111.53,25.11-164.83C438.41,461.59,451.12,428.38,460.31,394ZM427.78,180c7.91,30.15,8.61,60.87,6.54,91.73-4.1,61.46-19.92,120.6-35.89,179.71C390,482.71,381,513.85,375.59,545.89c-4.85,28.92-5.29,58-3.36,87.13,1.44,21.76,5.1,43.28,6.76,65a10.81,10.81,0,0,0,1.12,2.63c-2.41-.74-3.06-2.54-4-3.9-15.63-22.35-25.49-47.37-33.08-73.31A536.17,536.17,0,0,1,322.2,443.79c2.28-44,14.19-85.77,30.23-126.54,13.5-34.32,29.08-67.82,40.9-102.82,5.51-16.3,7.49-33.39,11.57-50,1.82-7.4,3.72-14.76,7.48-22.22A141.68,141.68,0,0,1,427.78,180ZM391.23,44.34c1.53-1.16,3,.39,4.24,1.49.32.28.95.2,1.44.29,1.7-.15,2.93.77,4.09,1.83l.88.36c1.79,1,3.87,1.68,4.95,3.68,5.29,1.73,5.55,5.62,5,10.38-1.09,8.68-1.71,17.42-2.58,26.66C405,86.21,403,82.44,401,78.75c-5.18-9.41-7.82-19.67-9.74-30.14C390.94,47.17,390.11,45.19,391.23,44.34Z"/><path class="cls-1" d="M412.38,765.86a2.81,2.81,0,0,1-.35.56,1.4,1.4,0,0,0,.39-.26C412.41,766.06,412.39,766,412.38,765.86Z"/><path class="cls-1" d="M448.3,63.85a5.2,5.2,0,0,0-.3,2.65c.48,1.88-.47,3.33-1.41,4.78-3.13,9.81-7.09,19.33-10.71,29-1.08,2.89-1.71,5.77.44,8.51,6.36,8.09,12.5,16.37,19.7,23.76a16.42,16.42,0,0,0,2,.86c-.33-.48-.67-1-1-1.44-6.33-7.69-12.53-15.47-19-23-2.18-2.53-2.28-4.69-1.13-7.63C440.74,91.26,445,81.35,448,71a6,6,0,0,1,.82-4l.2-3v-.85A4.21,4.21,0,0,1,448.3,63.85Z"/><path class="cls-1" d="M472.87,154.13c4.64,7.69,10.06,14.87,14.83,22.49,25.86,41.36,48.76,84.16,63,131.06,9.8,32.23,14.92,65.08,11.94,99a243.25,243.25,0,0,1-18.85,74.2c-10.17,24-23.28,46.38-37.16,68.38-18.2,28.86-37.42,57.07-53.71,87.13-19.13,35.32-32.91,72.38-38.4,112.31-.12,1.22-.25,2.44-.38,3.65.47-1.19,1-2.35,1.6-3.5h0a324.82,324.82,0,0,1,21.85-77.53c14.31-33.7,33.7-64.5,53.43-95.14,17.56-27.26,35.27-54.43,49.25-83.82,23.25-48.91,30.41-99.77,19.8-153.08-7.46-37.51-21.38-72.6-38.64-106.5a660.75,660.75,0,0,0-47.68-79.5,30.26,30.26,0,0,1-2.1-2.3A17.11,17.11,0,0,1,472.87,154.13Z"/><path class="cls-1" d="M386.45,2.51A61.36,61.36,0,0,1,405.86,10C424.52,21.4,442,34,447.8,56.85A10.15,10.15,0,0,0,449,59.46c0-.82,0-1.64,0-2.46a47,47,0,0,0-9-20.26,111.11,111.11,0,0,0-17.38-17.17A95.07,95.07,0,0,0,382.9,0C382.87,2.53,385.05,2.21,386.45,2.51Z"/><path class="cls-1" d="M466.29,144.25a3.54,3.54,0,0,0,1.18,1.62,14.59,14.59,0,0,1,1.17,1c-.39-.59-.77-1.19-1.15-1.79h0c-.23-.33-.47-.65-.7-1-.19-.14-.36-.3-.53-.45C466.27,143.87,466.29,144.06,466.29,144.25Z"/><path class="cls-1" d="M401.84,762.87l-.11.2a11.27,11.27,0,0,1,1.48-.22l-.34-.31a12.6,12.6,0,0,0-1.15-.75l-.27-.16a6.22,6.22,0,0,1,.26,1.41Z"/><path class="cls-1" d="M364.21,1.44c-5,.66-6.37,4.19-7.42,8.48a79,79,0,0,0-.32,35.15c5.14,25.15,16.9,47.8,27.27,71a8.33,8.33,0,0,1,1.39.39l-.51-1.25c-6-14.27-12.82-28.18-18.35-42.65-6.21-16.27-11.44-32.81-9.8-50.52.7-7.54.14-16,8.86-20.25A1.42,1.42,0,0,0,365.9,0C365.86,1.1,365,1.34,364.21,1.44Z"/><path class="cls-1" d="M316.38,686.79a3.92,3.92,0,0,0-1.22-1.52,3,3,0,0,1-.56-.31,3.39,3.39,0,0,1,.26.87h0l1.05,1.09.42.21C316.35,687,316.36,686.91,316.38,686.79Z"/><path class="cls-1" d="M401.73,763.07l.11-.2-.13.17v0Z"/><path class="cls-1" d="M397.33,758.91l-.63-.47a10.41,10.41,0,0,0-1.12-.75c-.54-.38-1.06-.77-1.59-1.16.61.79,1.19,1.63,1.77,2.46A12.23,12.23,0,0,1,397.33,758.91Z"/><path class="cls-1" d="M312.85,681.62c-2.87-5.58-7.83-9.46-11.92-14-27.68-30.61-50.34-64.4-67.23-102.15A340.37,340.37,0,0,1,204.45,444.4a228.81,228.81,0,0,1,5.3-63.48c12.74-56.34,38.72-106,76.35-149.7l1.21-1.31c-.46,0-.94,0-1.45,0-1.16,1.18-2.38,2.29-3.46,3.53a341.82,341.82,0,0,0-48,73.3c-25.17,51.24-36.79,104.91-29.26,162.1,8.58,65.1,33.95,123,73.91,174.84,10.38,13.45,22,25.89,33.07,38.72.43.34.88.66,1.3,1A9.49,9.49,0,0,1,312.85,681.62Z"/><path class="cls-1" d="M386.36,750.81c-6.38-5.27-12.91-10.38-19.05-15.94-14-12.68-27.56-25.76-40.55-39.46-1.58-1.67-3.07-3.52-5.41-4.26-.33-.06-.68-.11-1-.15.2.28.4.55.61.82,4.44,4.46,8.86,8.95,13.34,13.36,16.57,16.29,33.08,32.64,51.75,46.59a9.43,9.43,0,0,1,2,.3C387.46,751.65,386.9,751.24,386.36,750.81Z"/><path class="cls-1" d="M343.51,173.64c3-3.07,6-6.12,9.08-9.08.17-.19.36-.38.54-.56a2.22,2.22,0,0,0-.68-.18,5.92,5.92,0,0,1-.65.1l-8.92,9c-.11.62-.24,1.2-.39,1.75Z"/><path class="cls-1" d="M327.32,189.76c.41-.41.82-.82,1.22-1.24a6.45,6.45,0,0,1-.6-.55.91.91,0,0,0-1,1c.06.37.11.71.14,1Z"/><path class="cls-1" d="M357.5,159.52c.44-.48.87-1,1.27-1.46,8.91-9.82,17.53-19.88,25.47-30.52,1.52-2,3.06-4,2.43-6.71l-.21-.67a10,10,0,0,1-.63,1c.3,1.92-.76,3.29-1.82,4.72-8.17,11-17.32,21.26-26.26,31.66A3.79,3.79,0,0,1,357.5,159.52Z"/><path class="cls-1" d="M332.56,184.8a22.13,22.13,0,0,0,2.29-2.45c.19-.2.39-.39.58-.6A13.14,13.14,0,0,1,334,182c-1.44.12-.83,2-2,2.34-.27.57-.53,1.14-.79,1.71C331.6,185.61,332.07,185.19,332.56,184.8Z"/><path class="cls-1" d="M316.53,200.8a19.39,19.39,0,0,0,2.18-2.35c.12-.14.25-.27.37-.4a6.2,6.2,0,0,1-1.16-.1c-1.39.11-.77,2-2,2.25a9.67,9.67,0,0,1-.38,1.41C315.87,201.33,316.19,201.06,316.53,200.8Z"/><path class="cls-1" d="M293.77,223.39l.76-.75c5.89-6,11.84-11.91,17.78-17.84l.86-.91a4,4,0,0,1-1.26.05h0a246.56,246.56,0,0,0-18.14,17.57C293.8,222.18,293.8,222.8,293.77,223.39Z"/><path class="cls-1" d="M323.2,193.92c.24-.23.47-.47.7-.71a7.51,7.51,0,0,1-.85-.17h0l-.07.06-.36,1.37Z"/><path class="cls-1" d="M1,719.17Q1,380.32,1,41.46c0-1.5.09-3,.14-4.49h0c0-.41,0-.82-.07-1.23A6.72,6.72,0,0,1,0,35V727.81a7.36,7.36,0,0,1,1.08-.74C1.05,724.44,1,721.81,1,719.17Z"/><path class="cls-1" d="M1.05,35.11h0L0,35a6.72,6.72,0,0,0,1.08.75Z"/><path class="cls-1" d="M1.08,727.07a7.36,7.36,0,0,0-1.08.74l1.08-.14Z"/><path class="cls-1" d="M380.9,0h-9A17.17,17.17,0,0,0,380.9,0Z"/><path class="cls-1" d="M380.9,0a17.18,17.18,0,0,1-9,0A9,9,0,0,0,380.9,0Z"/><path class="cls-1" d="M409.93,766.13c-1.32-.59-2.69-1-4.05-1.51a6.38,6.38,0,0,1,2.83,2.93l.05,0c1.41,0,2.52-.23,3.23-1.06h0A2.91,2.91,0,0,1,409.93,766.13Z"/><path class="cls-1" d="M412.42,766.16c0,.26.07.52.11.79-.18-.18-.36-.34-.54-.5-.71.83-1.82,1-3.23,1.06l-.05,0a4.09,4.09,0,0,1,.18.49c3.77,2.41,5.36,1.87,5.37-3.09,0-5.37.95-10.74,1.48-16.11h0c-1.28,5-2.56,10.06-2.68,15.25A2.89,2.89,0,0,1,412.42,766.16Z"/><path class="cls-1" d="M405.88,764.62c-1.4-.47-2.8-.94-4.16-1.53h0l6.77,4.66.24-.2A6.38,6.38,0,0,0,405.88,764.62Z"/><path class="cls-1" d="M408.47,767.75l.42.29a4.09,4.09,0,0,0-.18-.49Z"/><path class="cls-1" d="M414.14,752.34a26.4,26.4,0,0,0-1.76,13.52,5.22,5.22,0,0,0,.48-1.85C413.24,760.12,413.7,756.23,414.14,752.34Z"/><path class="cls-1" d="M409.93,766.13a2.91,2.91,0,0,0,2,.31c-3.07-2.76-5.81-3.81-8.76-3.59a21.3,21.3,0,0,0,2.67,1.77C407.24,765.08,408.61,765.54,409.93,766.13Z"/><path class="cls-1" d="M412.86,764a5.22,5.22,0,0,1-.48,1.85c0,.1,0,.2,0,.3a2.89,2.89,0,0,0,.64-2.07c.12-5.19,1.4-10.23,2.68-15.25-.59,1.15-1.13,2.31-1.6,3.5C413.7,756.23,413.24,760.12,412.86,764Z"/><path class="cls-1" d="M401.72,763.07v0h0v0Z"/><polygon class="cls-1" points="401.72 763.1 401.72 763.1 401.72 763.1 401.72 763.09 401.72 763.09 401.72 763.1"/><path class="cls-1" d="M401.72,763.09c1.36.59,2.76,1.06,4.16,1.53a21.3,21.3,0,0,1-2.67-1.77,11.27,11.27,0,0,0-1.48.22Z"/><path class="cls-1" d="M463.67,140.14l.15.08-.06-.1h-.09Z"/><polygon class="cls-1" points="463.67 140.14 463.67 140.13 463.66 140.13 463.66 140.13 463.67 140.14"/><polyline class="cls-1" points="463.66 140.13 463.67 140.14 463.67 140.14 463.66 140.13 463.66 140.13"/><path class="cls-1" d="M448.8,67h0"/><path class="cls-1" d="M68.53,667.7c-.13,2.34-.15,3.42,1.08,3.85C68.83,670.91,68.59,669.74,68.53,667.7Z"/><path class="cls-1" d="M148.05,677.79c.07-4-1.25-5.06-5.13-5-23.64.16-47.29,0-70.94.16-3.72,0-5.32-.63-4.13-4.64.41-1.38.1-3,.1-4.48V100.71a17.68,17.68,0,0,0-.07-4c-1.09-4.6-.71-6.57,5.28-7.25,4.12-.48,7.7.53,11.52.52,19,0,38,0,57,0,2.14,0,4.28-.28,6.28-.42.43-14-.58-27.93.52-41.87.22-2.73-.5-5.52-.2-8.36a2.17,2.17,0,0,0,0-.77,2.46,2.46,0,0,0-1.39-1.66,13.89,13.89,0,0,0-4.55-.42q-66.58,0-133.16,0c-1.42,0-2.84.08-4.26,0-.92.13-1.83.27-2.75.39a5.11,5.11,0,0,1,.25.95,36,36,0,0,1,.41,7.47q0,336.41,0,672.8c0,2.9.61,6-1,8.65a16.19,16.19,0,0,1,5.83-.61q67.86,0,135.7,0a18.62,18.62,0,0,1,2,.11,3.67,3.67,0,0,0,1.73-.35,14.48,14.48,0,0,0,1-6.09C147.9,705.76,147.82,691.77,148.05,677.79ZM18.38,45.94c-1.32,0-2.29-.54-2.21-2.06S17.34,42,18.6,42c1,0,2,0,3,0H138.34c.83,0,1.66,0,2.49,0,1.34,0,2.87,0,2.94,1.85.09,2.26-1.68,2.12-3.16,2.12q-15.72,0-31.43,0H21.87C20.7,46,19.54,46,18.38,45.94Z"/><path class="cls-1" d="M9.1,36.42q66.57,0,133.16,0a13.89,13.89,0,0,1,4.55.42,6.39,6.39,0,0,0-1.94-.67,23.87,23.87,0,0,0-4.48-.2Q74.95,36,9.49,36a34.78,34.78,0,0,0-4.65.42C6.26,36.5,7.68,36.42,9.1,36.42Z"/><path class="cls-1" d="M145.26,726.19a18.62,18.62,0,0,0-2-.11q-67.84,0-135.7,0a16.19,16.19,0,0,0-5.83.61,6.65,6.65,0,0,1-.67,1h0c21,.05,42,.14,63,.13q41,0,81.93-.15a9.65,9.65,0,0,0,1-1.81A3.67,3.67,0,0,1,145.26,726.19Z"/><path class="cls-1" d="M1.75,726.71c1.58-2.67,1-5.75,1-8.65q0-336.39,0-672.8a36,36,0,0,0-.41-7.47,5.11,5.11,0,0,0-.25-.95L1.15,37c0,1.49-.14,3-.14,4.49Q1,380.31,1,719.17c0,2.64.05,5.27.08,7.9a5.6,5.6,0,0,1,.59-.33Z"/><path class="cls-1" d="M1.67,726.74a5.6,5.6,0,0,0-.59.33v.6a6.65,6.65,0,0,0,.67-1Z"/><path class="cls-1" d="M77,671.6h.22a2.24,2.24,0,0,0,.37-1c0-.17,0-.34,0-.51a4.36,4.36,0,0,1-.57.77Z"/><path class="cls-1" d="M2.08,36.13l-.35-.07a2.53,2.53,0,0,1,.13.22Z"/><path class="cls-1" d="M147.53,90.56l.88,0a5.19,5.19,0,0,0,.06-.52c0-.13,0-.25,0-.38A2.45,2.45,0,0,1,147.53,90.56Z"/><path class="cls-1" d="M149,682.46c0,13,0,26,0,39,0,2.65-.25,5-3,6.21,2.92.78,3.71-.47,3.69-3.31-.09-16.44,0-32.89-.05-49.33,0-1.14.26-2.35-.64-3.32h0a2.16,2.16,0,0,1-1.48.66C149.32,673.28,148.93,675.79,149,682.46Z"/><path class="cls-1" d="M2.08,36.13c1.53-1,3.4-.58,5.08-.58q67.71-.09,135.43,0c5.76,0,6.37.73,6.38,6.77,0,14.81-.12,29.62.06,44.42a5.47,5.47,0,0,1-.55,3c0,.13,0,.25,0,.38a5.19,5.19,0,0,1-.06.52l1.37,0c-.05-17.12-.13-34.24-.15-51.37,0-2.44.26-4.37-3.42-4.35q-72.59.24-145.16.21h0a4.14,4.14,0,0,1,.68,1Z"/><path class="cls-1" d="M1.86,36.28a2.53,2.53,0,0,0-.13-.22l-.08,0c-.2-.09-.38-.2-.57-.3,0,.41,0,.82.07,1.23h0A3.84,3.84,0,0,1,1.86,36.28Z"/><path class="cls-1" d="M1.65,36l.08,0a4.14,4.14,0,0,0-.68-1l0,.63C1.27,35.84,1.45,36,1.65,36Z"/><path class="cls-1" d="M2.09,36.84c.92-.12,1.83-.26,2.75-.39a15.27,15.27,0,0,1-2.76-.32l-.22.15A5.48,5.48,0,0,1,2.09,36.84Z"/><path class="cls-1" d="M148.06,38.12a2.17,2.17,0,0,0-1.25-1.25A2.85,2.85,0,0,1,148.06,38.12Z"/><path class="cls-1" d="M9.49,36q65.44-.09,130.9,0a23.87,23.87,0,0,1,4.48.2,6.39,6.39,0,0,1,1.94.67,2.17,2.17,0,0,1,1.25,1.25,2,2,0,0,1,.14.41,16.94,16.94,0,0,1,.3,4.14c0,15.66.08,31.33,0,47a5.47,5.47,0,0,0,.55-3c-.18-14.8,0-29.61-.06-44.42,0-6-.62-6.77-6.38-6.77q-67.71,0-135.43,0c-1.68,0-3.55-.39-5.08.58a15.27,15.27,0,0,0,2.76.32A34.78,34.78,0,0,1,9.49,36Z"/><path class="cls-1" d="M148.06,38.12a2.83,2.83,0,0,1,.14.41A2,2,0,0,0,148.06,38.12Z"/><path class="cls-1" d="M149,721.44c0-13,0-26,0-39,0-6.67.37-9.18-1.47-10.11-.6,0-1.23-.05-1.83-.05h-1a6.66,6.66,0,0,1,2.44.73,3.69,3.69,0,0,1,1.36,3.05q.12,23.32,0,46.65c0,1.49-.45,2.59-1.5,3.11a9.65,9.65,0,0,1-1,1.81C148.73,726.44,149,724.09,149,721.44Z"/><path class="cls-1" d="M1.86,36.28a3.84,3.84,0,0,0-.71.69h0l.94-.13A5.48,5.48,0,0,0,1.86,36.28Z"/><path class="cls-1" d="M146.66,90.89c.58,0,1.15-.1,1.73-.15a.78.78,0,0,0,0-.16l-.88,0A4.39,4.39,0,0,1,146.66,90.89Z"/><path class="cls-1" d="M73.75,90.9h.61c2.5,0,5,.06,7.49.08C79.18,90.58,76.51,90.19,73.75,90.9Z"/><path class="cls-1" d="M76.39,671.63l.67,0L77,671.6Z"/><path class="cls-1" d="M148.39,90.74c.46,0,.93-.07,1.39-.12l-1.37,0A.78.78,0,0,1,148.39,90.74Z"/><path class="cls-1" d="M76.39,671.63c-3.7.18-5.71.29-6.78-.08,1,.85,3.06.79,7,.66a2.3,2.3,0,0,0,.53-.5l0,0Z"/><path class="cls-1" d="M77.14,671.67c1.2.06,2.59.09,4.2.11-.17-.06-.34-.11-.49-.18H77.2Z"/><path class="cls-1" d="M81.34,671.78h1.34c18.49.16,37,0,55.47.05,5.21,0,7.92-.2,9.33.51a2.16,2.16,0,0,0,1.48-.66l-68.11-.09C81,671.67,81.17,671.72,81.34,671.78Z"/><path class="cls-1" d="M77.11,671.71c1,1,2.41.58,3.63.58q32,.06,63.94,0a37.17,37.17,0,0,0-4,0c-17.65,0-35.3,0-52.95,0a25.14,25.14,0,0,1-6.44-.49c-1.61,0-3,0-4.2-.11Z"/><path class="cls-1" d="M140.73,672.29a37.17,37.17,0,0,1,4,0h1c.6,0,1.23.1,1.83.05-1.41-.71-4.12-.5-9.33-.51-18.49,0-37,.11-55.47-.05H81.34a25.14,25.14,0,0,0,6.44.49C105.43,672.29,123.08,672.26,140.73,672.29Z"/><path class="cls-1" d="M77.06,671.67h.08l.06-.07H77Z"/><path class="cls-1" d="M292.88,224.26c-1.53,1.5-3.05,3-4.53,4.54A10.15,10.15,0,0,0,292.88,224.26Z"/><path class="cls-1" d="M292.88,224.26a10.32,10.32,0,0,0,.89-2.75,44.67,44.67,0,0,0-7.91,8.4h0a16.61,16.61,0,0,0,2.49-1.11C289.83,227.26,291.35,225.76,292.88,224.26Z"/><path class="cls-1" d="M288.35,228.8l-1,1.11c4.3-.15,6.24-2.1,6.46-6.52l-.89.87A10.15,10.15,0,0,1,288.35,228.8Z"/><path class="cls-1" d="M287.31,229.91l1-1.11a16.61,16.61,0,0,1-2.49,1.11C286.37,229.93,286.85,229.93,287.31,229.91Z"/><path class="cls-1" d="M293.77,223.39c0-.59,0-1.21,0-1.88a10.32,10.32,0,0,1-.89,2.75Z"/><path class="cls-1" d="M340.47,176.63c-1.18,1.17-2.34,2.35-3.5,3.54A18.34,18.34,0,0,0,340.47,176.63Z"/><path class="cls-1" d="M340.47,176.63a29.88,29.88,0,0,0,2.41-3.74q-4.45,4.55-8.93,9.08a15.56,15.56,0,0,0,3-1.8C338.13,179,339.29,177.8,340.47,176.63Z"/><path class="cls-1" d="M337,180.17l-1.54,1.58c3.77-.73,5.94-2.92,7.06-7.11l-2,2A18.34,18.34,0,0,1,337,180.17Z"/><path class="cls-1" d="M337,180.17a15.56,15.56,0,0,1-3,1.8,13.14,13.14,0,0,0,1.48-.22Z"/><path class="cls-1" d="M342.49,174.64c.15-.55.28-1.13.39-1.75a29.88,29.88,0,0,1-2.41,3.74Z"/><path class="cls-1" d="M316.33,687.13l-.42-.21c.11.2.23.4.35.6A2.92,2.92,0,0,1,316.33,687.13Z"/><path class="cls-1" d="M395.75,759c-2.94-2.82-5.89-5.62-9.74-7.22a44.74,44.74,0,0,0,9.73,7.23h0Z"/><path class="cls-1" d="M388,752.07c2,1.53,4,3,6,4.46A11.3,11.3,0,0,0,388,752.07Z"/><path class="cls-1" d="M395.76,759c-.58-.83-1.16-1.67-1.77-2.46-2-1.45-4-2.93-6-4.46a9.43,9.43,0,0,0-2-.3c3.85,1.6,6.8,4.4,9.74,7.22Z"/><path class="cls-1" d="M355.44,161.67c-.54.53-1.07,1.06-1.6,1.6A5.31,5.31,0,0,0,355.44,161.67Z"/><path class="cls-1" d="M353.84,163.27c.53-.54,1.06-1.07,1.6-1.6.86-1.3,1.39-2.91,2.31-4.14a28.91,28.91,0,0,0-5.95,6.39,1.21,1.21,0,0,1,.65-.1A4.59,4.59,0,0,0,353.84,163.27Z"/><path class="cls-1" d="M353.84,163.27l-.71.73c1.31.53,2.62,1.92,2.57.5-.06-2,1.21-3.42,1.8-5-.67.73-1.36,1.45-2.06,2.15A5.31,5.31,0,0,1,353.84,163.27Z"/><path class="cls-1" d="M352.45,163.82a2.22,2.22,0,0,1,.68.18l.71-.73A4.59,4.59,0,0,1,352.45,163.82Z"/><path class="cls-1" d="M357.5,159.52a3.79,3.79,0,0,0,.25-2c-.92,1.23-1.45,2.84-2.31,4.14C356.14,161,356.83,160.25,357.5,159.52Z"/><path class="cls-1" d="M326.92,189,323.05,193A6.12,6.12,0,0,0,326.92,189Z"/><path class="cls-1" d="M323.9,193.21c2.62.42,3.36-.94,3.16-3.2-1,1-2,2-2.95,3C324,193.07,324,193.14,323.9,193.21Z"/><path class="cls-1" d="M323.9,193.21c.06-.07.14-.14.21-.21.95-1,1.95-2,2.95-3,0-.34-.08-.68-.14-1a6.12,6.12,0,0,1-3.87,4.08h0A7.51,7.51,0,0,0,323.9,193.21Z"/><path class="cls-1" d="M401.69,763.06a9.66,9.66,0,0,0-5.92-4l0,0h0l0,0a17.63,17.63,0,0,0,6,4.09h0Z"/><path class="cls-1" d="M397.33,758.91c1.32,1,2.71,1.87,4.12,2.72C400.84,759.61,399.3,758.94,397.33,758.91Z"/><path class="cls-1" d="M401.72,763.07v0l0,0h0Z"/><polygon class="cls-1" points="395.79 759.03 395.79 759.03 395.78 759.02 395.79 759.03"/><path class="cls-1" d="M395.77,759a9.66,9.66,0,0,1,5.92,4l0,0a6.22,6.22,0,0,0-.26-1.41c-1.41-.85-2.8-1.74-4.12-2.72a12.23,12.23,0,0,0-1.57.08Z"/><path class="cls-1" d="M401.69,763.06v0h0Z"/><path class="cls-1" d="M401.71,763.09h0Z"/><path class="cls-1" d="M401.68,763.08h0v0Z"/><polygon class="cls-1" points="401.72 763.09 401.71 763.09 401.72 763.1 401.72 763.1 401.72 763.09"/><path class="cls-1" d="M401.72,763.07h0v0h0Z"/><path class="cls-1" d="M395.75,759h0Z"/><path class="cls-1" d="M395.79,759h0l0,0h0Z"/><path class="cls-1" d="M395.73,759h0l0,0Z"/><path class="cls-1" d="M395.75,759h0v0Z"/><path class="cls-1" d="M395.73,759l0,0h0l0,0Z"/><path class="cls-1" d="M323,193.1,317.92,198C320.35,197.11,321.5,194.93,323,193.1Z"/><path class="cls-1" d="M319.08,198.05c2.3,0,3-1.7,3.54-3.58C321.39,195.62,320.2,196.8,319.08,198.05Z"/><path class="cls-1" d="M322.62,194.47l.36-1.37c-1.48,1.83-2.63,4-5.06,4.85a6.2,6.2,0,0,0,1.16.1C320.2,196.8,321.39,195.62,322.62,194.47Z"/><path class="cls-1" d="M383.74,116a10.8,10.8,0,0,0,2.09,5.12C385.52,119.28,385.87,117.15,383.74,116Z"/><path class="cls-1" d="M385.13,116.42c.49,1.23.95,2.48,1.33,3.74C387.46,118.33,386.93,117.12,385.13,116.42Z"/><path class="cls-1" d="M385.13,116.42a8.33,8.33,0,0,0-1.39-.39c2.13,1.12,1.78,3.25,2.09,5.12a10,10,0,0,0,.63-1C386.08,118.9,385.62,117.65,385.13,116.42Z"/><path class="cls-1" d="M329.47,187.6c-.25.25-.52.5-.77.76l-.11.12.11.15C329.5,189.17,329.46,188.32,329.47,187.6Z"/><path class="cls-1" d="M329.47,187.6c0-.34,0-.65.16-.76a29.43,29.43,0,0,0,2.3-2.53l-4,3.66c.26,0,.46.23.65.51l.11-.12C329,188.1,329.22,187.85,329.47,187.6Z"/><path class="cls-1" d="M328.7,188.63c.31.43.63.74,1.19-.17a21.55,21.55,0,0,0,1.25-2.44c-.57.51-1.13,1-1.67,1.58C329.46,188.32,329.5,189.17,328.7,188.63Z"/><path class="cls-1" d="M329.63,186.84c-.13.11-.15.42-.16.76.54-.54,1.1-1.07,1.67-1.58.26-.57.52-1.14.79-1.71A29.43,29.43,0,0,1,329.63,186.84Z"/><path class="cls-1" d="M315.93,200.2a8.88,8.88,0,0,0-4,3.74h0A11.61,11.61,0,0,0,315.93,200.2Z"/><path class="cls-1" d="M313.17,203.89a3.07,3.07,0,0,0,2.38-2.28C314.72,202.33,313.93,203.1,313.17,203.89Z"/><path class="cls-1" d="M313.17,203.89c.76-.79,1.55-1.56,2.38-2.28a9.67,9.67,0,0,0,.38-1.41,11.61,11.61,0,0,1-4,3.74A4,4,0,0,0,313.17,203.89Z"/><path class="cls-1" d="M463.67,555.82c-3.18.57-6.42,5.45-5.13,7.91.74,1.42,1.86,2.58,3.28.5C459,560.67,461.58,558.3,463.67,555.82Z"/><path class="cls-1" d="M463.67,555.82h0c-2.09,2.48-4.66,4.85-1.85,8.41C460.68,561,463.26,558.67,463.67,555.82Z"/><path class="cls-1" d="M313.9,253.62a25.18,25.18,0,0,1,4-5.68C315.18,248.83,314.14,250.94,313.9,253.62Z"/><path class="cls-1" d="M317.94,247.94a25.18,25.18,0,0,0-4,5.68C315.64,252,317.44,250.44,317.94,247.94Z"/><path class="cls-1" d="M463.89,554.88c.43-1.76.71-3.58,1.95-5C463.94,551.05,462.81,552.53,463.89,554.88Z"/><path class="cls-1" d="M465.84,549.86c-1.24,1.44-1.52,3.26-1.95,5h0A9.56,9.56,0,0,0,465.84,549.86Z"/><path class="cls-1" d="M297.92,569.87c.84-1.71.54-3.06-1.25-3.92C298.11,566.93,297.16,568.67,297.92,569.87Z"/><path class="cls-1" d="M296.67,566c.1,1.4.17,2.82,1.25,3.92C297.16,568.67,298.11,566.93,296.67,566Z"/><path class="cls-1" d="M299.76,272.93c-1.6.24-3,.61-1.9,2.73h0A5.43,5.43,0,0,1,299.76,272.93Z"/><path class="cls-1" d="M299.76,272.93a5.43,5.43,0,0,0-1.9,2.73h0A3.11,3.11,0,0,0,299.76,272.93Z"/><path class="cls-1" d="M109.18,46q15.72,0,31.43,0c1.48,0,3.25.14,3.16-2.12-.07-1.89-1.6-1.8-2.94-1.85-.83,0-1.66,0-2.49,0H21.59c-1,0-2,0-3,0-1.26,0-2.35.32-2.43,1.86s.89,2,2.21,2.06c1.16.05,2.32.05,3.49.05h87.31Z"/><g id="Camada_2-2" data-name="Camada 2"><path class="cls-1" d="M797.28,730.57a16.19,16.19,0,0,0-5.83-.62q-67.85,0-135.7,0c-.66,0-1.33,0-2,.1a3.68,3.68,0,0,1-1.73-.34,14.66,14.66,0,0,1-1-6.09c.11-14,.19-28,0-42-.07-4,1.25-5.06,5.13-5,23.65.15,47.3,0,70.94.16,3.72,0,5.32-.64,4.13-4.65-.41-1.38-.1-3-.1-4.47V104.56a17.69,17.69,0,0,1,.07-4c1.09-4.6.71-6.57-5.28-7.25-4.12-.47-7.7.53-11.52.52-19,0-38,0-57,0-2.14,0-4.28-.27-6.28-.41-.43-14,.58-27.94-.52-41.88-.22-2.73.51-5.51.2-8.36a2.35,2.35,0,0,1,0-.76A3.26,3.26,0,0,1,651,42a2.8,2.8,0,0,1,1.25-1.25,13.59,13.59,0,0,1,4.56-.43q66.57,0,133.15,0c1.42,0,2.84.08,4.26,0l2.75.39a7.1,7.1,0,0,0-.25,1,35.87,35.87,0,0,0-.4,7.47q0,336.39,0,672.8C796.32,724.82,795.7,727.89,797.28,730.57Z"/></g></g></g></svg>