<svg xmlns="http://www.w3.org/2000/svg" viewBox="0 0 361.99 769.42"><defs><style>.cls-1{fill:#d1b066;}</style></defs><title>Ativo 1</title><g id="Camada_2" data-name="Camada 2"><g id="Camada_1-2" data-name="Camada 1"><g id="Camada_2-2" data-name="Camada 2"><g id="Camada_1-2-2" data-name="Camada 1-2"><path class="cls-1" d="M209.13,766.45h0Z"/><path class="cls-1" d="M125.72,188.51h0l.16.11Z"/><path class="cls-1" d="M260.89,140.15a.71.71,0,0,1-.08-.18.31.31,0,0,0,0,.19Z"/><path class="cls-1" d="M209.66,767a5.18,5.18,0,0,0-.11-.79,1.4,1.4,0,0,1-.39.26h0A5.37,5.37,0,0,1,209.66,767Z"/><path class="cls-1" d="M148.93,164a5.13,5.13,0,0,0,.65-.1A1.19,1.19,0,0,0,148.93,164Z"/><path class="cls-1" d="M162.46,1.78C153.74,6,154.3,14.49,153.6,22c-1.64,17.71,3.59,34.25,9.8,50.52,5.53,14.47,12.35,28.38,18.35,42.65l.51,1.25c1.8.7,2.33,1.91,1.33,3.74l.21.67c.63,2.76-.91,4.68-2.43,6.71-7.94,10.64-16.56,20.7-25.47,30.52-.4.5-.83,1-1.27,1.46-.59,1.56-1.86,2.94-1.8,5,0,1.42-1.26,0-2.57-.5-.18.18-.37.37-.54.56-3.09,3-6.09,6-9.08,9.08l-1,1c-1.12,4.19-3.29,6.38-7.06,7.11-.19.21-.39.4-.58.6a24.14,24.14,0,0,1-2.29,2.45c-.49.39-1,.81-1.42,1.22a24.37,24.37,0,0,1-1.25,2.44c-.56.91-.88.6-1.19.17l-.16-.11c-.4.42-.81.83-1.22,1.24l-.26.25c.2,2.26-.54,3.62-3.16,3.2-.23.24-.46.48-.7.71l-.58.55c-.52,1.88-1.24,3.55-3.54,3.58-.12.13-.25.26-.37.4a20.23,20.23,0,0,1-2.18,2.35c-.34.26-.66.53-1,.81a3.08,3.08,0,0,1-2.38,2.28l-.86.91c-5.94,5.93-11.89,11.85-17.78,17.84l-.76.75c-.22,4.42-2.16,6.37-6.46,6.52l-1.21,1.31C45.6,275,19.62,324.63,6.88,381a228.44,228.44,0,0,0-5.3,63.48A340.23,340.23,0,0,0,30.83,565.52c16.89,37.75,39.55,71.54,67.23,102.15,4.09,4.52,9,8.4,11.92,14a8.72,8.72,0,0,0,.52,1.79,4.59,4.59,0,0,1,1.23,1.57,2.77,2.77,0,0,0,.56.31,4.11,4.11,0,0,1,1.22,1.52.78.78,0,0,1-.05.34,12.13,12.13,0,0,1,4,3.87,4.89,4.89,0,0,1,1,.15c2.34.74,3.83,2.59,5.41,4.26,13,13.7,26.58,26.78,40.55,39.46,6.14,5.56,12.67,10.67,19.05,15.94.54.43,1.1.84,1.64,1.26a11.35,11.35,0,0,1,6,4.46c.53.39,1,.78,1.59,1.16.38.23.76.48,1.12.75l.63.47c2,0,3.51.7,4.12,2.72l.27.16c.39.23.78.48,1.15.75l.34.31c3-.22,5.69.83,8.76,3.59h.06a3.52,3.52,0,0,0,.35-.56,26.27,26.27,0,0,1,1.76-13.52c.13-1.21.26-2.43.38-3.65,5.49-39.93,19.27-77,38.4-112.31,16.29-30.06,35.51-58.27,53.71-87.13,13.88-22,27-44.4,37.16-68.38a243.34,243.34,0,0,0,18.85-74.2c3-33.91-2.14-66.76-11.94-99-14.24-46.9-37.14-89.7-63-131.06-4.77-7.62-10.19-14.8-14.83-22.49a17.8,17.8,0,0,0-1.22-3.16,44,44,0,0,1-3-4.07c-.38-.35-.77-.69-1.17-1a3.45,3.45,0,0,1-1.18-1.62v-.56a9.08,9.08,0,0,1-2.6-3.56,40.37,40.37,0,0,1-5.69-6.76,15.44,15.44,0,0,1-2-.86c-7.2-7.39-13.34-15.67-19.7-23.76-2.15-2.74-1.52-5.62-.44-8.51,3.62-9.63,7.58-19.15,10.71-29,.94-1.45,1.89-2.9,1.41-4.78a5.1,5.1,0,0,1,.3-2.65,4.35,4.35,0,0,0,.69-.73V59.53a10,10,0,0,1-1.16-2.61C239.13,34,221.65,21.43,203,10a61.44,61.44,0,0,0-19.41-7.52c-1.4-.3-3.58,0-3.55-2.51h-2a9,9,0,0,1-9,0h-6A1.43,1.43,0,0,1,162.46,1.78ZM127.62,663.72c-45.16-49.87-73.15-107.84-83.18-174C33.06,414.62,48.06,345,91.13,282c1.39-2,2.59-4.22,3.87-6.33h0c-1.1-2.12.3-2.49,1.9-2.73L111,253.66c.24-2.68,1.28-4.79,4-5.68,14.82-17.49,29-35.57,44.48-52.47.85-.93,1.33-2.92,2.76-2.28,1.84.82.11,2.32-.25,3.36-8.52,24.43-22.69,46-34.71,68.7Q73.64,366.57,78.13,481a308.73,308.73,0,0,0,15.63,85c1.79.86,2.09,2.21,1.25,3.92,6.13,22.24,15.35,43.37,23.37,64.94,3.09,8.32,6,16.7,9.22,25A4.91,4.91,0,0,1,127.62,663.72ZM320.37,385.88c.6-4.58,3.37-8.58,6-14,.17,2.49.31,3.78.35,5.07,1.38,48.8-13.45,93.3-36,135.74a481.68,481.68,0,0,1-24.37,41.81c-2.26,3.39-4.92,6.51-7.4,9.76-1.42,2.08-2.54.92-3.28-.5-1.29-2.46,2-7.34,5.13-7.91.07-.31.14-.63.22-.94h0c-1.08-2.35.05-3.83,2-5,18.65-39.86,37.15-79.76,47.08-123C313.21,413.18,318.54,400,320.37,385.88ZM257.44,394a334.65,334.65,0,0,0,10-115.29c-2.12-25.2-4.36-50.4-6.56-75.61h0c-.27-1.07-.6-2.13-.78-3.21-.09-.56-.11-1.48.81-1.27.44.1.71.92,1.06,1.41,13.06,20.27,20.28,42.84,26,66,14.39,57.61,8.29,113.83-11.48,169.14-9.39,26.31-20.24,52-31.52,77.55-16,36.07-25.6,74-35,112.08-3,12.08-6.14,24.14-10.16,35.94h0c-.08.94-.53,2.3-1.3,2-1-.41-.51-1.85-.29-2.88-5-57,5.6-111.53,25.11-164.83C235.54,461.62,248.25,428.41,257.44,394ZM224.91,180c7.91,30.15,8.61,60.87,6.54,91.73-4.1,61.46-19.92,120.6-35.89,179.71-8.43,31.27-17.43,62.41-22.84,94.45-4.85,28.92-5.29,58-3.36,87.13,1.44,21.76,5.1,43.28,6.76,65a10.53,10.53,0,0,0,1.12,2.63c-2.41-.74-3.06-2.54-4-3.9-15.63-22.35-25.49-47.37-33.08-73.31a536,536,0,0,1-20.83-179.65c2.28-44,14.19-85.77,30.23-126.54,13.5-34.32,29.08-67.82,40.9-102.82,5.51-16.3,7.49-33.39,11.57-50,1.82-7.4,3.72-14.76,7.48-22.22A142,142,0,0,1,224.91,180ZM188.36,44.37c1.53-1.16,3,.39,4.24,1.49.32.28,1,.2,1.44.29,1.7-.15,2.93.77,4.09,1.83l.88.36c1.79,1,3.87,1.68,5,3.68,5.29,1.73,5.55,5.62,5,10.38-1.09,8.68-1.71,17.42-2.58,26.66-4.25-2.82-6.25-6.59-8.25-10.28-5.18-9.41-7.82-19.67-9.74-30.14C188.07,47.2,187.24,45.22,188.36,44.37Z"/><path class="cls-1" d="M209.51,765.89a3.52,3.52,0,0,1-.35.56,1.4,1.4,0,0,0,.39-.26C209.54,766.09,209.52,766,209.51,765.89Z"/><path class="cls-1" d="M245.43,63.88a5.1,5.1,0,0,0-.3,2.65c.48,1.88-.47,3.33-1.41,4.78-3.13,9.81-7.09,19.33-10.71,29-1.08,2.89-1.71,5.77.44,8.51,6.36,8.09,12.5,16.37,19.7,23.76a15.44,15.44,0,0,0,2,.86c-.33-.48-.67-1-1-1.44-6.33-7.69-12.53-15.47-19-23-2.18-2.53-2.28-4.69-1.13-7.63,3.85-10.08,8.11-20,11.11-30.34a5.92,5.92,0,0,1,.82-4l.2-3v-.85A4.75,4.75,0,0,1,245.43,63.88Z"/><path class="cls-1" d="M270,154.16c4.64,7.69,10.06,14.87,14.83,22.49,25.86,41.36,48.76,84.16,63,131.06,9.8,32.23,14.92,65.08,11.94,99a243.34,243.34,0,0,1-18.85,74.2c-10.17,24-23.28,46.38-37.16,68.38-18.2,28.86-37.42,57.07-53.71,87.13-19.13,35.32-32.91,72.38-38.4,112.31-.12,1.22-.25,2.44-.38,3.65a36.63,36.63,0,0,1,1.6-3.5h0a324.1,324.1,0,0,1,21.85-77.53c14.31-33.7,33.7-64.5,53.43-95.14,17.56-27.26,35.27-54.43,49.25-83.82,23.25-48.91,30.41-99.77,19.8-153.08-7.46-37.51-21.38-72.6-38.64-106.5a662.58,662.58,0,0,0-47.68-79.5,30.44,30.44,0,0,1-2.1-2.3A18.5,18.5,0,0,1,270,154.16Z"/><path class="cls-1" d="M183.58,2.54A61.47,61.47,0,0,1,203,10c18.66,11.4,36.14,24,41.94,46.85a9.8,9.8,0,0,0,1.2,2.61V57a47.16,47.16,0,0,0-9-20.26A112,112,0,0,0,219.75,19.6,95.16,95.16,0,0,0,180,0C180,2.56,182.18,2.24,183.58,2.54Z"/><path class="cls-1" d="M263.42,144.28a3.45,3.45,0,0,0,1.18,1.62c.4.31.79.65,1.17,1-.39-.59-.77-1.19-1.15-1.79h0c-.23-.33-.47-.65-.7-1-.19-.14-.36-.3-.53-.45C263.4,143.9,263.42,144.09,263.42,144.28Z"/><path class="cls-1" d="M199,762.9l-.11.2a10.35,10.35,0,0,1,1.48-.22l-.34-.31c-.37-.27-.76-.52-1.15-.75l-.27-.16a6.74,6.74,0,0,1,.26,1.41Z"/><path class="cls-1" d="M161.34,1.47c-5,.66-6.37,4.19-7.42,8.48a78.85,78.85,0,0,0-.32,35.15c5.14,25.15,16.9,47.8,27.27,71a8.73,8.73,0,0,1,1.39.39l-.51-1.25c-6-14.27-12.82-28.18-18.35-42.65-6.21-16.27-11.44-32.81-9.8-50.52.7-7.54.14-16,8.86-20.25A1.43,1.43,0,0,0,163,0C163,1.13,162.13,1.37,161.34,1.47Z"/><path class="cls-1" d="M113.51,686.82a4.11,4.11,0,0,0-1.22-1.52,2.77,2.77,0,0,1-.56-.31,3.79,3.79,0,0,1,.26.87h0L113,687l.42.21C113.48,687,113.49,686.94,113.51,686.82Z"/><path class="cls-1" d="M198.86,763.1l.11-.2-.13.17h0Z"/><path class="cls-1" d="M194.46,758.94l-.63-.47c-.36-.27-.74-.52-1.12-.75-.54-.38-1.06-.77-1.59-1.16.61.79,1.19,1.63,1.77,2.46A11.71,11.71,0,0,1,194.46,758.94Z"/><path class="cls-1" d="M110,681.65c-2.87-5.58-7.83-9.46-11.92-14C70.38,637,47.72,603.25,30.83,565.5A340.23,340.23,0,0,1,1.58,444.43,228.44,228.44,0,0,1,6.88,381c12.74-56.34,38.72-106,76.35-149.7l1.21-1.31H83c-1.16,1.18-2.38,2.29-3.46,3.53a341.36,341.36,0,0,0-48,73.3C6.36,358-5.26,411.68,2.27,468.87c8.58,65.1,33.95,123,73.91,174.84,10.38,13.45,22,25.89,33.07,38.72.43.34.88.66,1.3,1A9.23,9.23,0,0,1,110,681.65Z"/><path class="cls-1" d="M183.49,750.84c-6.38-5.27-12.91-10.38-19.05-15.94-14-12.68-27.56-25.76-40.55-39.46-1.58-1.67-3.07-3.52-5.41-4.26-.33-.06-.68-.11-1-.15.2.28.4.55.61.82,4.44,4.46,8.86,8.95,13.34,13.36,16.57,16.29,33.08,32.64,51.75,46.59a9.77,9.77,0,0,1,2,.3C184.59,751.68,184,751.27,183.49,750.84Z"/><path class="cls-1" d="M140.64,173.67c3-3.07,6-6.12,9.08-9.08.17-.19.36-.38.54-.56a2.08,2.08,0,0,0-.68-.18,5.13,5.13,0,0,1-.65.1L140,173c-.11.62-.24,1.2-.39,1.75Z"/><path class="cls-1" d="M124.45,189.79c.41-.41.82-.82,1.22-1.24a4.5,4.5,0,0,1-.6-.55.91.91,0,0,0-1,.81.61.61,0,0,0,0,.19c.06.37.11.71.14,1Z"/><path class="cls-1" d="M154.63,159.55c.44-.48.87-1,1.27-1.46,8.91-9.82,17.53-19.88,25.47-30.52,1.52-2,3.06-4,2.43-6.71l-.21-.67a11.26,11.26,0,0,1-.63,1c.3,1.92-.76,3.29-1.82,4.72-8.17,11-17.32,21.26-26.26,31.66A3.94,3.94,0,0,1,154.63,159.55Z"/><path class="cls-1" d="M129.69,184.83a24.14,24.14,0,0,0,2.29-2.45c.19-.2.39-.39.58-.6a14.27,14.27,0,0,1-1.43.25c-1.44.12-.83,2-2,2.34-.27.57-.53,1.14-.79,1.71A10.8,10.8,0,0,1,129.69,184.83Z"/><path class="cls-1" d="M113.66,200.83a20.23,20.23,0,0,0,2.18-2.35c.12-.14.25-.27.37-.4a6.41,6.41,0,0,1-1.16-.1c-1.39.11-.77,2-2,2.25a11.27,11.27,0,0,1-.38,1.41C113,201.36,113.32,201.09,113.66,200.83Z"/><path class="cls-1" d="M90.9,223.42l.76-.75c5.89-6,11.84-11.91,17.78-17.84l.86-.91A4.1,4.1,0,0,1,109,204h0A244.59,244.59,0,0,0,90.9,221.54C90.93,222.21,90.93,222.83,90.9,223.42Z"/><path class="cls-1" d="M120.33,194c.24-.23.47-.47.7-.71a8,8,0,0,1-.85-.17h0l-.07.06-.36,1.37Z"/><path class="cls-1" d="M178,0a17.17,17.17,0,0,1-9,0A9,9,0,0,0,178,0Z"/><path class="cls-1" d="M207.06,766.16c-1.32-.59-2.69-1-4.05-1.51a6.42,6.42,0,0,1,2.83,2.93h0a4,4,0,0,0,3.23-1.06h0A2.9,2.9,0,0,1,207.06,766.16Z"/><path class="cls-1" d="M209.55,766.19a5.55,5.55,0,0,0,.11.79c-.18-.18-.36-.34-.54-.5-.71.83-1.82,1-3.23,1.06h0a4.09,4.09,0,0,1,.18.49c3.77,2.41,5.36,1.87,5.37-3.09,0-5.37,1-10.74,1.48-16.11h0c-1.28,5-2.56,10.06-2.68,15.25A2.92,2.92,0,0,1,209.55,766.19Z"/><path class="cls-1" d="M203,764.65c-1.4-.47-2.8-.94-4.16-1.53h0l6.77,4.66.24-.2A6.47,6.47,0,0,0,203,764.65Z"/><path class="cls-1" d="M205.6,767.78l.42.29a4.09,4.09,0,0,0-.18-.49Z"/><path class="cls-1" d="M211.27,752.37a26.27,26.27,0,0,0-1.76,13.52A5.38,5.38,0,0,0,210,764C210.37,760.15,210.83,756.26,211.27,752.37Z"/><path class="cls-1" d="M207.06,766.16a2.89,2.89,0,0,0,2,.31c-3.07-2.76-5.81-3.81-8.76-3.59a19.93,19.93,0,0,0,2.67,1.77A42.36,42.36,0,0,1,207.06,766.16Z"/><path class="cls-1" d="M210,764a5.38,5.38,0,0,1-.48,1.85v.3a2.92,2.92,0,0,0,.64-2.07c.12-5.19,1.4-10.23,2.68-15.25-.59,1.15-1.13,2.31-1.6,3.5C210.83,756.26,210.37,760.15,210,764Z"/><polygon class="cls-1" points="198.84 763.13 198.84 763.13 198.84 763.13 198.84 763.12 198.84 763.12 198.84 763.13"/><path class="cls-1" d="M198.85,763.12c1.36.59,2.76,1.06,4.16,1.53a19.93,19.93,0,0,1-2.67-1.77,10.35,10.35,0,0,0-1.48.22Z"/><path class="cls-1" d="M260.8,140.17l.15.08-.06-.1h-.09Z"/><polygon class="cls-1" points="260.8 140.17 260.8 140.16 260.79 140.16 260.79 140.16 260.8 140.17"/><polyline class="cls-1" points="260.79 140.16 260.8 140.17 260.8 140.17 260.79 140.16 260.79 140.16"/><path class="cls-1" d="M90,224.29c-1.53,1.5-3.05,3-4.53,4.54A10.15,10.15,0,0,0,90,224.29Z"/><path class="cls-1" d="M90,224.29a10.66,10.66,0,0,0,.89-2.75,44.67,44.67,0,0,0-7.91,8.4h0a16.74,16.74,0,0,0,2.49-1.11C87,227.29,88.48,225.79,90,224.29Z"/><path class="cls-1" d="M85.48,228.83l-1,1.11c4.3-.15,6.24-2.1,6.46-6.52l-.89.87A10.19,10.19,0,0,1,85.48,228.83Z"/><path class="cls-1" d="M84.44,229.94l1-1.11A16.74,16.74,0,0,1,83,229.94C83.5,230,84,230,84.44,229.94Z"/><path class="cls-1" d="M90.9,223.42v-1.88a10.66,10.66,0,0,1-.89,2.75Z"/><path class="cls-1" d="M137.6,176.66c-1.18,1.17-2.34,2.35-3.5,3.54A18.92,18.92,0,0,0,137.6,176.66Z"/><path class="cls-1" d="M137.6,176.66a31.33,31.33,0,0,0,2.41-3.74q-4.45,4.54-8.93,9.08a16,16,0,0,0,3-1.8C135.26,179,136.42,177.83,137.6,176.66Z"/><path class="cls-1" d="M134.13,180.2l-1.54,1.58c3.77-.73,5.94-2.92,7.06-7.11l-2,2A18.68,18.68,0,0,1,134.13,180.2Z"/><path class="cls-1" d="M134.13,180.2a16,16,0,0,1-3,1.8c.49-.05,1-.12,1.48-.22Z"/><path class="cls-1" d="M139.62,174.67c.15-.55.28-1.13.39-1.75a31.33,31.33,0,0,1-2.41,3.74Z"/><path class="cls-1" d="M113.46,687.16,113,687c.11.2.23.4.35.6A1.78,1.78,0,0,1,113.46,687.16Z"/><path class="cls-1" d="M192.88,759c-2.94-2.82-5.89-5.62-9.74-7.22a44.74,44.74,0,0,0,9.73,7.23h0Z"/><path class="cls-1" d="M185.13,752.1c2,1.53,4,3,6,4.46A11.35,11.35,0,0,0,185.13,752.1Z"/><path class="cls-1" d="M192.89,759c-.58-.83-1.16-1.67-1.77-2.46-2-1.45-4-2.93-6-4.46a9.77,9.77,0,0,0-2-.3c3.85,1.6,6.8,4.4,9.74,7.22Z"/><path class="cls-1" d="M152.57,161.7c-.54.53-1.07,1.06-1.6,1.6A5.42,5.42,0,0,0,152.57,161.7Z"/><path class="cls-1" d="M151,163.3c.53-.54,1.06-1.07,1.6-1.6.86-1.3,1.39-2.91,2.31-4.14a28.66,28.66,0,0,0-5.95,6.39,1.19,1.19,0,0,1,.65-.1A4.75,4.75,0,0,0,151,163.3Z"/><path class="cls-1" d="M151,163.3l-.71.73c1.31.53,2.62,1.92,2.57.5-.06-2,1.21-3.42,1.8-5-.67.73-1.36,1.45-2.06,2.15A5.37,5.37,0,0,1,151,163.3Z"/><path class="cls-1" d="M149.58,163.85a2.08,2.08,0,0,1,.68.18l.71-.73A4.75,4.75,0,0,1,149.58,163.85Z"/><path class="cls-1" d="M154.63,159.55a3.9,3.9,0,0,0,.25-2c-.92,1.23-1.45,2.84-2.31,4.14C153.27,161,154,160.28,154.63,159.55Z"/><path class="cls-1" d="M124.05,189l-3.87,4A6.15,6.15,0,0,0,124.05,189Z"/><path class="cls-1" d="M121,193.24c2.62.42,3.36-.94,3.16-3.2-1,1-2,2-3,3C121.13,193.1,121.13,193.17,121,193.24Z"/><path class="cls-1" d="M121,193.24c.06-.07.14-.14.21-.21,1-1,2-2,3-3a5.48,5.48,0,0,0-.14-1,6.14,6.14,0,0,1-3.87,4.08h0A7.91,7.91,0,0,0,121,193.24Z"/><path class="cls-1" d="M198.82,763.09a9.68,9.68,0,0,0-5.92-4h0a17.55,17.55,0,0,0,6,4.09h0Z"/><path class="cls-1" d="M194.46,758.94a46.52,46.52,0,0,0,4.12,2.72C198,759.64,196.43,759,194.46,758.94Z"/><polygon class="cls-1" points="192.91 759.06 192.91 759.06 192.91 759.05 192.91 759.06"/><path class="cls-1" d="M192.9,759a9.68,9.68,0,0,1,5.92,4h0a6.74,6.74,0,0,0-.26-1.41c-1.41-.85-2.8-1.74-4.12-2.72a11.71,11.71,0,0,0-1.57.08Z"/><polygon class="cls-1" points="198.84 763.12 198.84 763.12 198.84 763.13 198.84 763.13 198.84 763.12"/><path class="cls-1" d="M120.13,193.13l-5.08,4.9C117.48,197.14,118.63,195,120.13,193.13Z"/><path class="cls-1" d="M116.21,198.08c2.3,0,3-1.7,3.54-3.58C118.52,195.65,117.33,196.83,116.21,198.08Z"/><path class="cls-1" d="M119.75,194.5l.36-1.37c-1.48,1.83-2.63,4-5.06,4.85a6.41,6.41,0,0,0,1.16.1C117.33,196.83,118.52,195.65,119.75,194.5Z"/><path class="cls-1" d="M180.87,116a10.8,10.8,0,0,0,2.09,5.12C182.65,119.31,183,117.18,180.87,116Z"/><path class="cls-1" d="M182.26,116.45c.49,1.23,1,2.48,1.33,3.74C184.59,118.36,184.06,117.15,182.26,116.45Z"/><path class="cls-1" d="M182.26,116.45a8.73,8.73,0,0,0-1.39-.39c2.13,1.12,1.78,3.25,2.09,5.12a11.26,11.26,0,0,0,.63-1C183.21,118.93,182.75,117.68,182.26,116.45Z"/><path class="cls-1" d="M126.6,187.63c-.25.25-.52.5-.77.76l-.11.12.11.15C126.63,189.2,126.59,188.35,126.6,187.63Z"/><path class="cls-1" d="M126.6,187.63c0-.34,0-.65.16-.76a30.68,30.68,0,0,0,2.3-2.53l-4,3.66c.26,0,.46.23.65.51l.11-.12C126.13,188.13,126.35,187.88,126.6,187.63Z"/><path class="cls-1" d="M125.83,188.66c.31.43.63.74,1.19-.17a24.37,24.37,0,0,0,1.25-2.44c-.57.51-1.13,1-1.67,1.58C126.59,188.35,126.63,189.2,125.83,188.66Z"/><path class="cls-1" d="M126.76,186.87c-.13.11-.15.42-.16.76.54-.54,1.1-1.07,1.67-1.58.26-.57.52-1.14.79-1.71A30.68,30.68,0,0,1,126.76,186.87Z"/><path class="cls-1" d="M113.06,200.23a8.78,8.78,0,0,0-4,3.74h0A11.65,11.65,0,0,0,113.06,200.23Z"/><path class="cls-1" d="M110.3,203.92a3.08,3.08,0,0,0,2.38-2.28C111.85,202.36,111.06,203.13,110.3,203.92Z"/><path class="cls-1" d="M110.3,203.92c.76-.79,1.55-1.56,2.38-2.28a11.27,11.27,0,0,0,.38-1.41,11.65,11.65,0,0,1-4,3.74A4,4,0,0,0,110.3,203.92Z"/><path class="cls-1" d="M260.8,555.85c-3.18.57-6.42,5.45-5.13,7.91.74,1.42,1.86,2.58,3.28.5C256.13,560.7,258.71,558.33,260.8,555.85Z"/><path class="cls-1" d="M260.8,555.85h0c-2.09,2.48-4.66,4.85-1.85,8.41C257.81,561,260.39,558.7,260.8,555.85Z"/><path class="cls-1" d="M111,253.65a25,25,0,0,1,4-5.68C112.31,248.86,111.27,251,111,253.65Z"/><path class="cls-1" d="M115.07,248a25,25,0,0,0-4,5.68C112.77,252,114.57,250.47,115.07,248Z"/><path class="cls-1" d="M261,554.91c.43-1.76.71-3.58,2-5C261.07,551.08,259.94,552.56,261,554.91Z"/><path class="cls-1" d="M263,549.89c-1.24,1.44-1.52,3.26-2,5h0A9.61,9.61,0,0,0,263,549.89Z"/><path class="cls-1" d="M95.05,569.9c.84-1.71.54-3.06-1.25-3.92C95.24,567,94.29,568.7,95.05,569.9Z"/><path class="cls-1" d="M93.8,566c.1,1.4.17,2.82,1.25,3.92C94.29,568.7,95.24,567,93.8,566Z"/><path class="cls-1" d="M96.89,273c-1.6.24-3,.61-1.9,2.73h0A5.37,5.37,0,0,1,96.89,273Z"/><path class="cls-1" d="M96.89,273a5.37,5.37,0,0,0-1.9,2.73h0A3.14,3.14,0,0,0,96.89,273Z"/></g></g></g></g></svg>