<svg xmlns="http://www.w3.org/2000/svg" viewBox="0 0 24 19.5"><defs><style>.cls-1{fill:#fff;}</style></defs><title>Ativo 1</title><g id="Camada_2" data-name="Camada 2"><g id="Camada_1-2" data-name="Camada 1"><path class="cls-1" d="M24,2.31a9.87,9.87,0,0,1-2.83.77A4.94,4.94,0,0,0,23.34.36a10,10,0,0,1-3.13,1.19,4.93,4.93,0,0,0-8.39,4.5A14,14,0,0,1,1.67.9,4.94,4.94,0,0,0,3.19,7.48,5,5,0,0,1,1,6.86a4.94,4.94,0,0,0,4,4.89,4.86,4.86,0,0,1-2.22.08,4.92,4.92,0,0,0,4.6,3.42,9.86,9.86,0,0,1-7.29,2A13.92,13.92,0,0,0,7.55,19.5a13.92,13.92,0,0,0,14-14.64A10.11,10.11,0,0,0,24,2.31Z"/></g></g></svg>